<?xml version="1.0" standalone="no"?>
<!DOCTYPE svg PUBLIC "-//W3C//DTD SVG 20010904//EN"
 "http://www.w3.org/TR/2001/REC-SVG-20010904/DTD/svg10.dtd">
<svg version="1.0" xmlns="http://www.w3.org/2000/svg"
 width="280.000000pt" height="280.000000pt" viewBox="0 0 280.000000 280.000000"
 preserveAspectRatio="xMidYMid meet">
<metadata>
Created by potrace 1.14, written by Peter Selinger 2001-2017
</metadata>
<g transform="translate(0.000000,280.000000) scale(0.100000,-0.100000)"
fill="#000000" stroke="none">
<path d="M1375 2790 c-29 -11 -42 -30 -49 -70 -3 -19 -6 -489 -6 -1044 l-1
-1008 -22 6 c-253 69 -520 -14 -644 -199 -79 -117 -66 -282 29 -371 100 -95
299 -132 449 -83 66 21 161 62 182 79 56 44 104 91 124 124 56 88 54 43 55
1074 0 524 3 954 7 956 14 9 150 -47 225 -92 90 -54 229 -185 269 -253 63
-110 72 -150 71 -324 -1 -127 -5 -174 -21 -230 -48 -167 -57 -204 -51 -211 16
-15 59 9 85 49 35 51 65 124 98 237 21 73 25 106 25 225 0 285 -74 448 -305
675 -235 230 -355 353 -386 394 -45 59 -93 83 -134 66z"/>
</g>
</svg>
